<?xml version="1.0" encoding="UTF-8" standalone="no"?>
<!-- Created with Inkscape (http://www.inkscape.org/) -->

<svg
   width="150"
   height="150"
   viewBox="0 0 150 150"
   version="1.1"
   id="SVGRoot"
   sodipodi:docname="splash.svg"
   xml:space="preserve"
   inkscape:version="1.2.1 (9c6d41e410, 2022-07-14)"
   xmlns:inkscape="http://www.inkscape.org/namespaces/inkscape"
   xmlns:sodipodi="http://sodipodi.sourceforge.net/DTD/sodipodi-0.dtd"
   xmlns="http://www.w3.org/2000/svg"
   xmlns:svg="http://www.w3.org/2000/svg"><sodipodi:namedview
     id="namedview187"
     pagecolor="#505050"
     bordercolor="#ffffff"
     borderopacity="1"
     inkscape:showpageshadow="0"
     inkscape:pageopacity="0"
     inkscape:pagecheckerboard="1"
     inkscape:deskcolor="#505050"
     inkscape:document-units="px"
     showgrid="false"
     inkscape:zoom="4"
     inkscape:cx="59.125"
     inkscape:cy="81"
     inkscape:window-width="1920"
     inkscape:window-height="1009"
     inkscape:window-x="-8"
     inkscape:window-y="-8"
     inkscape:window-maximized="1"
     inkscape:current-layer="g568"
     showguides="true" /><defs
     id="defs182"><rect
       x="65.333626"
       y="188.89203"
       width="43.668587"
       height="58.901817"
       id="rect540" /></defs><g
     inkscape:label="Camada 1"
     inkscape:groupmode="layer"
     id="layer1"><g
       id="g568"
       transform="matrix(0.88428143,0,0,0.88428143,4.5116916,10.184422)"><rect
         style="display:none;fill:#ffffff;fill-opacity:1;stroke-width:3.78;stroke-linecap:round;stroke-linejoin:round;stroke-dasharray:none"
         id="rect4139"
         width="82.731491"
         height="106.77312"
         x="36.416"
         y="24.748737"
         rx="0"
         ry="0"
         inkscape:label="rect4139" /><path
         style="display:none;fill:#e6e7e8;fill-opacity:1;stroke:none;stroke-width:0.78;stroke-linecap:round;stroke-linejoin:round;stroke-dasharray:none;stroke-opacity:1"
         d="m 36.399908,24.752719 -0.467622,107.059341 67.677924,-0.30619 c -2.7228,-2.08668 -4.276909,-2.83286 -7.081133,-7.16655 -1.301403,-2.33127 -3.597582,-6.67454 -3.721312,-10.49513 C 54.082154,103.15484 47.917242,96.900575 46.170848,74.592179 46.349806,54.241299 47.073845,54.08699 45.374706,26.370515 c 0.0079,-0.233785 -3.988602,-1.549197 -0.759921,-1.381662 0.625301,0.03245 1.358396,-0.265217 0.346466,-0.281635 -1.761525,-0.02859 -4.063486,-0.02226 -5.77562,0.01889 -1.564451,0.0376 -2.316439,0.02915 -2.785723,0.02661 z"
         id="path4433"
         sodipodi:nodetypes="cccccccsssc" /><path
         style="display:inline;fill:#ffffff;fill-opacity:1;stroke-width:0.235033"
         d="m 35.588372,132.73231 c -2.48155,-0.61589 -4.86062,-2.39242 -6.18368,-4.61755 -1.28002,-2.15277 -1.22008,0.39272 -1.21706,-51.684332 0.002,-39.973147 0.0571,-48.277529 0.32506,-49.283954 0.74364,-2.792895 2.72725,-5.184372 5.31294,-6.405357 1.26934,-0.599394 1.39983,-0.611742 7.227254,-0.683841 l 5.934578,-0.07343 v 4.010224 4.010224 h -4.899261 c -4.447835,0 -4.935102,0.0396 -5.288238,0.429814 -0.359252,0.396969 -0.388976,4.068561 -0.388976,48.047414 0,42.975348 0.03601,47.653608 0.369337,47.986938 0.331739,0.33174 3.298599,0.36934 29.144064,0.36934 h 28.774727 v 4.11307 4.11308 l -28.967789,-0.02 c -22.217084,-0.0153 -29.241652,-0.088 -30.142956,-0.31164 z m 16.273794,-16.21093 c -1.182048,-0.43602 -1.094952,-0.35446 -5.660126,-5.30035 l -3.999439,-4.33297 1.511058,-1.37721 c 0.831083,-0.75746 2.185193,-1.97855 3.009135,-2.71352 l 1.498076,-1.33631 2.503041,2.66823 2.503041,2.66823 5.84593,-6.3826 c 3.215262,-3.510423 5.922121,-6.3525 6.015241,-6.315722 0.334216,0.131994 5.825658,5.240876 5.790803,5.387396 -0.09878,0.41521 -15.110196,16.485486 -15.669398,16.774656 -0.999516,0.51687 -2.363945,0.62292 -3.347362,0.26017 z m 24.504395,-9.07601 v -3.99555 h 6.933466 6.933467 v 3.99555 3.99556 H 83.300027 76.366561 Z M 51.100537,91.49939 c -0.555354,-0.340306 -6.245369,-6.350788 -8.410832,-8.884537 -0.413926,-0.484323 -0.378682,-0.528545 2.553913,-3.204339 l 2.973631,-2.713239 1.441644,1.563887 c 0.792905,0.86014 1.9185,2.073807 2.501325,2.697041 l 1.05968,1.133152 5.575351,-6.092978 c 3.066443,-3.351137 5.734497,-6.225059 5.929012,-6.386489 0.297763,-0.247123 0.809272,0.125737 3.236345,2.359108 1.585477,1.458943 2.855296,2.742593 2.82182,2.85256 -0.03348,0.109967 -3.393669,3.827419 -7.467094,8.26101 -4.69756,5.112905 -7.708243,8.20509 -8.232016,8.454857 -1.111649,0.530109 -3.084716,0.510277 -3.982779,-0.04003 z m 25.266024,-8.849971 v -4.113074 h 14.807064 14.807065 v 4.113074 4.113073 H 91.173625 76.366561 Z M 113.50174,57.148363 c 0,-27.890556 -0.005,-28.209156 -0.47007,-28.673998 -0.43792,-0.437925 -0.78344,-0.470066 -5.0532,-0.470066 h -4.58314 v -4.01069 -4.010689 l 5.69954,0.07389 5.69955,0.07389 1.39537,0.705098 c 2.91051,1.470711 4.89524,4.300064 5.31839,7.581644 0.11238,0.871549 0.20779,14.038434 0.21202,29.259744 l 0.008,27.675109 h -4.11308 -4.11307 z M 51.438982,66.660675 C 50.888,66.42316 49.202473,64.770123 46.503293,61.820126 c -2.254433,-2.463924 -4.098968,-4.54948 -4.098968,-4.634569 0,-0.155141 5.642244,-5.442948 5.807781,-5.442948 0.04846,0 1.139435,1.166423 2.424394,2.59205 1.28496,1.425626 2.451952,2.562597 2.593317,2.526602 0.141363,-0.03599 2.838201,-2.883913 5.992974,-6.328709 l 5.735951,-6.263259 1.297045,1.143761 c 0.713374,0.629068 2.070004,1.861065 3.014732,2.737768 l 1.717685,1.594009 -7.358471,8.013111 c -4.047161,4.40721 -7.709028,8.259486 -8.137481,8.560615 -0.982611,0.690601 -2.874437,0.850282 -4.05327,0.342118 z m 24.927579,-8.807214 v -3.995557 h 14.807064 14.807065 v 3.995557 3.995557 H 91.173625 76.366561 Z"
         id="path424" /><rect
         style="fill:#ffffff;fill-opacity:1;stroke-width:3.77953;stroke-linecap:round;stroke-linejoin:round"
         id="rect478"
         width="44.684135"
         height="16.248777"
         x="52.470009"
         y="14.556196"
         rx="5.642127"
         ry="5.6421242" /><ellipse
         style="display:none;fill:#000000;fill-opacity:0;stroke-width:5.81839;stroke-linecap:round;stroke-linejoin:round"
         id="path532"
         cx="116.55605"
         cy="111.55626"
         rx="23.971876"
         ry="23.711313" /><g
         id="g1303"
         style="fill:#ffffff;fill-opacity:1"
         transform="matrix(0.55002607,0,0,0.55002607,16.473549,32.942698)"><g
           id="g1307"
           transform="translate(2.7695466,-0.92318221)"><rect
             style="fill:#ffffff;fill-opacity:1;stroke-width:3.27335;stroke-linecap:round;stroke-linejoin:round"
             id="rect1297"
             width="35.846127"
             height="14.302688"
             x="209.73029"
             y="9.3657789"
             rx="10.210979"
             ry="10.205223"
             transform="matrix(0.78776661,0.61597383,-0.69081884,0.72302789,0,0)" /><rect
             style="fill:#ffffff;fill-opacity:1;stroke-width:3.77953;stroke-linecap:round;stroke-linejoin:round"
             id="rect1299"
             width="49.423363"
             height="16.079519"
             x="-0.91641432"
             y="229.04166"
             rx="10.257925"
             ry="10.257922"
             transform="rotate(-46.657892)" /></g></g></g></g></svg>
