<?xml version="1.0" encoding="UTF-8" standalone="no"?>
<!-- Created with Inkscape (http://www.inkscape.org/) -->

<svg
   width="456"
   height="456"
   viewBox="0 0 456 456"
   version="1.1"
   id="SVGRoot"
   sodipodi:docname="appiconfg.svg"
   xml:space="preserve"
   inkscape:version="1.2.1 (9c6d41e410, 2022-07-14)"
   xmlns:inkscape="http://www.inkscape.org/namespaces/inkscape"
   xmlns:sodipodi="http://sodipodi.sourceforge.net/DTD/sodipodi-0.dtd"
   xmlns="http://www.w3.org/2000/svg"
   xmlns:svg="http://www.w3.org/2000/svg"><sodipodi:namedview
     id="namedview187"
     pagecolor="#505050"
     bordercolor="#ffffff"
     borderopacity="1"
     inkscape:showpageshadow="0"
     inkscape:pageopacity="0"
     inkscape:pagecheckerboard="1"
     inkscape:deskcolor="#505050"
     inkscape:document-units="px"
     showgrid="false"
     inkscape:zoom="1.4770342"
     inkscape:cx="144.54642"
     inkscape:cy="220.71256"
     inkscape:window-width="1920"
     inkscape:window-height="1009"
     inkscape:window-x="-8"
     inkscape:window-y="-8"
     inkscape:window-maximized="1"
     inkscape:current-layer="layer1"
     showguides="true" /><defs
     id="defs182"><rect
       x="65.333626"
       y="188.89203"
       width="43.668587"
       height="58.901817"
       id="rect540" /></defs><g
     inkscape:label="Camada 1"
     inkscape:groupmode="layer"
     id="layer1"><g
       id="g3412"
       transform="matrix(1.4548341,0,0,1.3884579,118.53725,114.16296)"
       style="fill:#ffffff;fill-opacity:1"><rect
         style="fill:#ffffff;fill-opacity:1;stroke-width:1.81537;stroke-linecap:round;stroke-linejoin:round"
         id="rect3021"
         width="16.157278"
         height="7.9888778"
         x="90.121712"
         y="103.45148"
         rx="0.056502592"
         ry="0.059203736" /><g
         id="g3402"
         style="fill:#ffffff;fill-opacity:1"><path
           style="fill:#ffffff;stroke-width:0.235033;fill-opacity:1"
           d="m 35.588372,132.73231 c -2.48155,-0.61589 -4.86062,-2.39242 -6.18368,-4.61755 -1.28002,-2.15277 -1.22008,0.39272 -1.21706,-51.684332 0.002,-39.973147 0.0571,-48.277529 0.32506,-49.283954 0.74364,-2.792895 2.72725,-5.184372 5.31294,-6.405357 1.26934,-0.599394 1.39983,-0.611742 7.227254,-0.683841 l 5.934578,-0.07343 v 4.010224 4.010224 h -4.899261 c -4.447835,0 -4.935102,0.0396 -5.288238,0.429814 -0.359252,0.396969 -0.388976,4.068561 -0.388976,48.047414 0,42.975348 0.03601,47.653608 0.369337,47.986938 0.331739,0.33174 3.298599,0.36934 29.144064,0.36934 h 28.774727 v 4.11307 4.11308 l -28.967789,-0.02 c -22.217084,-0.0153 -29.241652,-0.088 -30.142956,-0.31164 z m 16.273794,-16.21093 c -1.182048,-0.43602 -1.094952,-0.35446 -5.660126,-5.30035 l -3.999439,-4.33297 1.511058,-1.37721 c 0.831083,-0.75746 2.185193,-1.97855 3.009135,-2.71352 l 1.498076,-1.33631 2.503041,2.66823 2.503041,2.66823 5.84593,-6.3826 c 3.215262,-3.510423 5.922121,-6.3525 6.015241,-6.315722 0.334216,0.131994 5.825658,5.240876 5.790803,5.387396 -0.09878,0.41521 -15.110196,16.485486 -15.669398,16.774656 -0.999516,0.51687 -2.363945,0.62292 -3.347362,0.26017 z m 24.504395,-9.07601 v -3.99555 h 6.933466 6.933467 v 3.99555 3.99556 H 83.300027 76.366561 Z M 51.100537,91.49939 c -0.555354,-0.340306 -6.245369,-6.350788 -8.410832,-8.884537 -0.413926,-0.484323 -0.378682,-0.528545 2.553913,-3.204339 l 2.973631,-2.713239 1.441644,1.563887 c 0.792905,0.86014 1.9185,2.073807 2.501325,2.697041 l 1.05968,1.133152 5.575351,-6.092978 c 3.066443,-3.351137 5.734497,-6.225059 5.929012,-6.386489 0.297763,-0.247123 0.809272,0.125737 3.236345,2.359108 1.585477,1.458943 2.855296,2.742593 2.82182,2.85256 -0.03348,0.109967 -3.393669,3.827419 -7.467094,8.26101 -4.69756,5.112905 -7.708243,8.20509 -8.232016,8.454857 -1.111649,0.530109 -3.084716,0.510277 -3.982779,-0.04003 z m 25.266024,-8.849971 v -4.113074 h 14.807064 14.807065 v 4.113074 4.113073 H 91.173625 76.366561 Z M 113.50174,57.148363 c 0,-27.890556 -0.005,-28.209156 -0.47007,-28.673998 -0.43792,-0.437925 -0.78344,-0.470066 -5.0532,-0.470066 h -4.58314 v -4.01069 -4.010689 l 5.69954,0.07389 5.69955,0.07389 1.39537,0.705098 c 2.91051,1.470711 4.89524,4.300064 5.31839,7.581644 0.11238,0.871549 0.20779,14.038434 0.21202,29.259744 l 0.008,27.675109 h -4.11308 -4.11307 z M 51.438982,66.660675 C 50.888,66.42316 49.202473,64.770123 46.503293,61.820126 c -2.254433,-2.463924 -4.098968,-4.54948 -4.098968,-4.634569 0,-0.155141 5.642244,-5.442948 5.807781,-5.442948 0.04846,0 1.139435,1.166423 2.424394,2.59205 1.28496,1.425626 2.451952,2.562597 2.593317,2.526602 0.141363,-0.03599 2.838201,-2.883913 5.992974,-6.328709 l 5.735951,-6.263259 1.297045,1.143761 c 0.713374,0.629068 2.070004,1.861065 3.014732,2.737768 l 1.717685,1.594009 -7.358471,8.013111 c -4.047161,4.40721 -7.709028,8.259486 -8.137481,8.560615 -0.982611,0.690601 -2.874437,0.850282 -4.05327,0.342118 z m 24.927579,-8.807214 v -3.995557 h 14.807064 14.807065 v 3.995557 3.995557 H 91.173625 76.366561 Z m 61.970769,7.493755 h -14.80706"
           id="path424"
           sodipodi:nodetypes="csccsscccssssscccccsscsscccssssscccccccccssscsscsssssssscccccccccccscccccsscccccssssssscsscsssccccccccc" /><rect
           style="fill:#ffffff;fill-opacity:1;stroke-width:3.77953;stroke-linecap:round;stroke-linejoin:round"
           id="rect478"
           width="44.684135"
           height="16.248777"
           x="52.470009"
           y="14.556196"
           rx="3.4294136"
           ry="3.5933576" /><g
           id="g3384"
           style="fill:#ffffff;fill-opacity:1"><g
             id="g3388"
             style="fill:#ffffff;fill-opacity:1"><rect
               style="fill:#ffffff;fill-opacity:1;stroke-width:3.95541;stroke-linecap:round;stroke-linejoin:round"
               id="rect3025"
               width="32.517178"
               height="8.2833796"
               x="89.164429"
               y="124.7881"
               rx="2.3955657"
               ry="2.9829421" /><rect
               style="fill:#ffffff;fill-opacity:1;stroke-width:3.86281;stroke-linecap:round;stroke-linejoin:round"
               id="rect3027"
               width="8.1243887"
               height="44.553387"
               x="113.57218"
               y="85.052193"
               rx="0.056502592"
               ry="0.059203736" /></g></g></g></g></g></svg>
